<?xml version="1.0" encoding="UTF-8" standalone="no"?>
<!-- Created with Inkscape (http://www.inkscape.org/) -->

<svg
   version="1.1"
   id="svg3525"
   width="40.788696"
   height="43.885857"
   viewBox="0 0 49.788696 49.885857"
   sodipodi:docname="wcMask2.png"
   xmlns:inkscape="http://www.inkscape.org/namespaces/inkscape"
   xmlns:sodipodi="http://sodipodi.sourceforge.net/DTD/sodipodi-0.dtd"
   xmlns="http://www.w3.org/2000/svg"
   xmlns:svg="http://www.w3.org/2000/svg">
  <defs
     id="defs3529" />
  <sodipodi:namedview
     id="namedview3527"
     pagecolor="#ffffff"
     bordercolor="#000000"
     borderopacity="0.25"
     inkscape:showpageshadow="2"
     inkscape:pageopacity="0.0"
     inkscape:pagecheckerboard="0"
     inkscape:deskcolor="#d1d1d1"
     showgrid="false" />
  <g
     inkscape:groupmode="layer"
     inkscape:label="Image"
     id="g3531"
     transform="translate(-260.26892,-119.84348)">
    <path
    fill="currentColor"
       style="stroke-width:0.19656"
       d="m 281.98718,169.52637 c -3.97813,-0.51087 -7.92192,-2.06 -11.28984,-4.43468 -1.90123,-1.34053 -4.88297,-4.41164 -6.18608,-6.37149 -5.65363,-8.50295 -5.65663,-19.31327 -0.008,-27.8679 1.41471,-2.14241 4.55666,-5.27846 6.76688,-6.75415 5.17378,-3.45438 11.49281,-4.89715 17.47162,-3.98913 5.57374,0.84649 10.14879,3.14794 14.05956,7.07259 4.9069,4.92431 7.25629,10.62422 7.25629,17.60464 0,4.37448 -0.74122,7.56758 -2.60767,11.23353 -1.32312,2.59878 -2.55399,4.27485 -4.75068,6.46898 -5.42021,5.41389 -13.08264,8.01741 -20.71234,7.03761 z m 18.40103,-16.72991 1.13022,-0.51918 v -1.80389 -1.80389 l -0.44226,0.32532 c -2.8622,2.1054 -5.94648,1.42916 -6.96441,-1.52697 -0.42417,-1.23183 -0.47273,-4.36921 -0.0856,-5.53173 1.01732,-3.0551 3.68595,-3.89676 6.56541,-2.07066 l 0.92688,0.5878 v -1.77558 -1.77559 l -1.13022,-0.52967 c -0.99121,-0.46452 -1.37197,-0.52966 -3.09582,-0.52966 -1.75674,0 -2.08517,0.0587 -3.09077,0.55252 -2.55845,1.25635 -4.07685,4.30832 -4.07685,8.19441 0,4.32688 1.86816,7.56502 4.94124,8.56478 1.37353,0.44684 3.9469,0.27374 5.3222,-0.35801 z m -23.66115,-3.8e-4 c 0.0891,-0.24325 0.63977,-3.07369 1.22364,-6.28988 0.58387,-3.21619 1.10581,-5.84751 1.15987,-5.84738 0.0541,1.4e-4 0.60939,2.75463 1.23407,6.12111 0.62469,3.36647 1.18274,6.19681 1.24011,6.28964 0.17323,0.2803 3.81386,0.20877 3.91548,-0.0769 0.14128,-0.39722 3.04523,-16.32901 3.04523,-16.70692 0,-0.29957 -0.20408,-0.34468 -1.55924,-0.34468 -1.31562,0 -1.57495,0.0537 -1.65983,0.34398 -0.0553,0.18919 -0.56471,2.88773 -1.13196,5.99676 -0.56725,3.10903 -1.08945,5.58569 -1.16045,5.50369 -0.071,-0.082 -0.59211,-2.71421 -1.15804,-5.84935 -0.56593,-3.13513 -1.09635,-5.77055 -1.17871,-5.85648 -0.0824,-0.0859 -0.8472,-0.13015 -1.69964,-0.0983 l -1.54989,0.058 -1.08503,5.94585 c -0.59676,3.27022 -1.12925,5.94567 -1.18331,5.94546 -0.0541,-1.9e-4 -0.58899,-2.67584 -1.18875,-5.94584 l -1.09047,-5.94547 -1.61223,-0.0571 c -1.40006,-0.0496 -1.61223,-0.0137 -1.61223,0.27237 0,0.3488 2.91058,16.31854 3.05061,16.73804 0.058,0.17369 0.63247,0.2457 1.96037,0.2457 1.76887,0 1.8878,-0.0258 2.0404,-0.44226 z"
       id="path3535" />
  </g>
</svg>
